<svg xmlns="http://www.w3.org/2000/svg" xmlns:xlink="http://www.w3.org/1999/xlink" width="500" zoomAndPan="magnify" viewBox="0 0 375 374.999991" height="500" preserveAspectRatio="xMidYMid meet" version="1.0"><defs><g/><clipPath id="2ebfdd27ba"><path d="M 128.546875 102.015625 L 246.296875 102.015625 L 246.296875 219.765625 L 128.546875 219.765625 Z M 128.546875 102.015625 " clip-rule="nonzero"/></clipPath><clipPath id="04d0091f78"><path d="M 161.625 145.824219 L 213.375 145.824219 L 213.375 190 L 161.625 190 Z M 161.625 145.824219 " clip-rule="nonzero"/></clipPath></defs><g clip-path="url(#2ebfdd27ba)"><path fill="#5ce1e6" d="M 245.234375 145.292969 L 188.609375 102.824219 C 187.890625 102.28125 186.902344 102.28125 186.183594 102.824219 L 129.558594 145.292969 C 128.664062 145.960938 128.484375 147.230469 129.152344 148.121094 C 129.824219 149.015625 131.089844 149.199219 131.984375 148.527344 L 144.929688 138.820312 L 144.929688 217.691406 C 144.929688 218.808594 145.835938 219.714844 146.949219 219.714844 L 227.84375 219.714844 C 228.960938 219.714844 229.867188 218.808594 229.867188 217.691406 L 229.867188 138.820312 L 242.808594 148.527344 C 243.171875 148.800781 243.601562 148.933594 244.019531 148.933594 C 244.636719 148.933594 245.242188 148.652344 245.640625 148.125 C 246.308594 147.230469 246.128906 145.960938 245.234375 145.292969 Z M 225.820312 215.667969 L 148.972656 215.667969 L 148.972656 135.789062 L 187.398438 106.96875 L 225.820312 135.789062 Z M 225.820312 215.667969 " fill-opacity="1" fill-rule="nonzero"/></g><g clip-path="url(#04d0091f78)"><path fill="#5ce1e6" d="M 166.800781 189.746094 C 166.492188 189.746094 166.207031 189.574219 166.066406 189.292969 C 165.910156 188.988281 165.960938 188.621094 166.191406 188.371094 C 168.617188 185.699219 170.351562 183.382812 170.84375 180.910156 C 164.988281 177.125 161.640625 171.605469 161.640625 165.699219 C 161.640625 160.347656 164.359375 155.332031 169.296875 151.574219 C 174.167969 147.867188 180.632812 145.824219 187.5 145.824219 C 194.363281 145.824219 200.828125 147.867188 205.699219 151.574219 C 210.636719 155.332031 213.359375 160.347656 213.359375 165.699219 C 213.359375 171.050781 210.636719 176.066406 205.699219 179.824219 C 200.828125 183.53125 194.363281 185.574219 187.5 185.574219 C 185.757812 185.574219 184.011719 185.4375 182.308594 185.171875 C 178.492188 187.621094 173.578125 189.078125 166.882812 189.742188 C 166.855469 189.746094 166.828125 189.746094 166.800781 189.746094 Z M 187.5 147.472656 C 174.148438 147.472656 163.285156 155.648438 163.285156 165.699219 C 163.285156 171.179688 166.527344 176.320312 172.179688 179.804688 C 172.453125 179.976562 172.605469 180.289062 172.5625 180.613281 C 172.210938 183.332031 170.605469 185.742188 168.832031 187.859375 C 174.332031 187.125 178.449219 185.761719 181.671875 183.625 C 181.847656 183.507812 182.054688 183.464844 182.261719 183.496094 C 183.976562 183.78125 185.738281 183.925781 187.5 183.925781 C 200.847656 183.925781 211.710938 175.75 211.710938 165.699219 C 211.710938 155.648438 200.847656 147.472656 187.5 147.472656 Z M 187.5 147.472656 " fill-opacity="1" fill-rule="nonzero"/></g><g fill="#5ce1e6" fill-opacity="1"><g transform="translate(83.055319, 246.994655)"><g><path d="M 21.6875 -9.28125 L 20.734375 -7.546875 L 15.984375 -10.15625 L 8.03125 4.390625 L 6.296875 3.4375 L 14.25 -11.109375 L 9.46875 -13.71875 L 10.421875 -15.453125 Z M 21.6875 -9.28125 "/></g></g></g><g fill="#5ce1e6" fill-opacity="1"><g transform="translate(97.928783, 255.10102)"><g><path d="M 15.203125 -3.265625 C 15.328125 -3.546875 15.378906 -3.863281 15.359375 -4.21875 C 15.347656 -4.570312 15.25 -4.941406 15.0625 -5.328125 C 14.882812 -5.722656 14.566406 -6.113281 14.109375 -6.5 C 13.660156 -6.894531 13.101562 -7.238281 12.4375 -7.53125 L 12.140625 -7.671875 C 11.597656 -7.910156 11.007812 -8.003906 10.375 -7.953125 C 9.75 -7.898438 9.179688 -7.75 8.671875 -7.5 C 8.171875 -7.257812 7.734375 -6.976562 7.359375 -6.65625 C 6.992188 -6.332031 6.742188 -6.03125 6.609375 -5.75 L 3.40625 1.5 L 1.578125 0.703125 L 9.09375 -16.265625 L 10.921875 -15.46875 L 8.28125 -9.484375 C 9.9375 -10.128906 11.492188 -10.128906 12.953125 -9.484375 L 13.25 -9.34375 C 14.988281 -8.570312 16.1875 -7.53125 16.84375 -6.21875 C 17.5 -4.914062 17.5625 -3.660156 17.03125 -2.453125 L 13.328125 5.90625 L 11.5 5.09375 Z M 15.203125 -3.265625 "/></g></g></g><g fill="#5ce1e6" fill-opacity="1"><g transform="translate(113.426091, 261.939643)"><g><path d="M 5.625 -4.859375 L 5.109375 -3.375 C 4.992188 -3.039062 4.957031 -2.671875 5 -2.265625 C 5.039062 -1.867188 5.160156 -1.460938 5.359375 -1.046875 C 5.566406 -0.640625 5.90625 -0.25 6.375 0.125 C 6.851562 0.507812 7.429688 0.820312 8.109375 1.0625 L 8.421875 1.171875 C 8.609375 1.234375 8.789062 1.289062 8.96875 1.34375 C 9.15625 1.394531 9.445312 1.453125 9.84375 1.515625 C 10.25 1.585938 10.613281 1.617188 10.9375 1.609375 C 11.269531 1.609375 11.617188 1.539062 11.984375 1.40625 C 12.347656 1.28125 12.640625 1.082031 12.859375 0.8125 L 14.390625 2.109375 C 13.722656 2.898438 12.820312 3.378906 11.6875 3.546875 C 10.550781 3.722656 9.242188 3.554688 7.765625 3.046875 L 7.453125 2.9375 C 6.535156 2.613281 5.742188 2.175781 5.078125 1.625 C 4.410156 1.082031 3.914062 0.492188 3.59375 -0.140625 C 3.269531 -0.773438 3.070312 -1.425781 3 -2.09375 C 2.9375 -2.769531 3.007812 -3.414062 3.21875 -4.03125 L 4.484375 -7.6875 C 4.984375 -9.125 5.910156 -10.117188 7.265625 -10.671875 C 8.628906 -11.222656 10.25 -11.171875 12.125 -10.515625 L 12.4375 -10.40625 C 14.289062 -9.757812 15.578125 -8.800781 16.296875 -7.53125 C 17.023438 -6.257812 17.140625 -4.90625 16.640625 -3.46875 L 15.890625 -1.296875 Z M 14.65625 -3.84375 L 14.75 -4.125 C 15.0625 -5.03125 14.976562 -5.875 14.5 -6.65625 C 14.019531 -7.445312 13.113281 -8.070312 11.78125 -8.53125 L 11.46875 -8.640625 C 10.125 -9.109375 9.015625 -9.179688 8.140625 -8.859375 C 7.273438 -8.546875 6.6875 -7.9375 6.375 -7.03125 L 6.28125 -6.75 Z M 14.65625 -3.84375 "/></g></g></g><g fill="#5ce1e6" fill-opacity="1"><g transform="translate(129.439423, 267.462952)"><g/></g></g><g fill="#5ce1e6" fill-opacity="1"><g transform="translate(145.857335, 271.632509)"><g><path d="M 4 -9.953125 C 4.050781 -10.234375 4.144531 -10.507812 4.28125 -10.78125 C 4.425781 -11.0625 4.65625 -11.335938 4.96875 -11.609375 C 5.28125 -11.878906 5.65625 -12.09375 6.09375 -12.25 C 6.539062 -12.414062 7.113281 -12.515625 7.8125 -12.546875 C 8.519531 -12.585938 9.316406 -12.535156 10.203125 -12.390625 L 10.53125 -12.328125 C 11.644531 -12.140625 12.691406 -11.726562 13.671875 -11.09375 C 14.660156 -10.46875 15.347656 -9.695312 15.734375 -8.78125 L 13.90625 -8 C 13.6875 -8.507812 13.238281 -8.992188 12.5625 -9.453125 C 11.882812 -9.910156 11.097656 -10.210938 10.203125 -10.359375 L 9.875 -10.421875 C 9.226562 -10.523438 8.644531 -10.570312 8.125 -10.5625 C 7.613281 -10.5625 7.210938 -10.503906 6.921875 -10.390625 C 6.628906 -10.285156 6.398438 -10.164062 6.234375 -10.03125 C 6.078125 -9.894531 5.984375 -9.753906 5.953125 -9.609375 L 5.921875 -9.4375 C 5.890625 -9.195312 5.945312 -8.914062 6.09375 -8.59375 C 6.25 -8.28125 6.515625 -8.046875 6.890625 -7.890625 L 12.90625 -5.21875 C 13.78125 -4.8125 14.382812 -4.265625 14.71875 -3.578125 C 15.050781 -2.898438 15.15625 -2.207031 15.03125 -1.5 L 14.953125 -1.046875 C 14.847656 -0.429688 14.59375 0.0859375 14.1875 0.515625 C 13.78125 0.941406 13.316406 1.242188 12.796875 1.421875 C 12.285156 1.597656 11.71875 1.722656 11.09375 1.796875 C 10.46875 1.867188 9.921875 1.890625 9.453125 1.859375 C 8.992188 1.828125 8.566406 1.78125 8.171875 1.71875 L 7.25 1.5625 C 5.695312 1.289062 4.445312 0.613281 3.5 -0.46875 C 2.5625 -1.5625 2.191406 -2.691406 2.390625 -3.859375 L 4.375 -3.515625 C 4.269531 -2.910156 4.519531 -2.285156 5.125 -1.640625 C 5.738281 -0.992188 6.554688 -0.582031 7.578125 -0.40625 L 8.5 -0.25 C 9.0625 -0.15625 9.660156 -0.117188 10.296875 -0.140625 C 10.941406 -0.160156 11.535156 -0.273438 12.078125 -0.484375 C 12.617188 -0.691406 12.921875 -0.988281 12.984375 -1.375 L 13.0625 -1.828125 C 13.125 -2.179688 13.03125 -2.503906 12.78125 -2.796875 C 12.539062 -3.097656 12.316406 -3.296875 12.109375 -3.390625 L 6.09375 -6.078125 C 5.238281 -6.453125 4.644531 -7.003906 4.3125 -7.734375 C 3.976562 -8.460938 3.863281 -9.144531 3.96875 -9.78125 Z M 4 -9.953125 "/></g></g></g><g fill="#5ce1e6" fill-opacity="1"><g transform="translate(162.565648, 274.419304)"><g><path d="M 8.4375 -0.96875 C 8.9375 -0.925781 9.425781 -0.953125 9.90625 -1.046875 C 10.394531 -1.148438 10.804688 -1.289062 11.140625 -1.46875 C 11.484375 -1.644531 11.785156 -1.832031 12.046875 -2.03125 C 12.316406 -2.238281 12.519531 -2.425781 12.65625 -2.59375 C 12.789062 -2.757812 12.859375 -2.878906 12.859375 -2.953125 L 13.0625 -5.375 L 8.5 -5.75 C 7.863281 -5.800781 7.285156 -5.796875 6.765625 -5.734375 C 6.242188 -5.671875 5.820312 -5.570312 5.5 -5.4375 C 5.1875 -5.300781 4.914062 -5.144531 4.6875 -4.96875 C 4.46875 -4.789062 4.3125 -4.628906 4.21875 -4.484375 C 4.132812 -4.347656 4.085938 -4.234375 4.078125 -4.140625 L 4.015625 -3.375 C 3.992188 -3.207031 4.0625 -3.003906 4.21875 -2.765625 C 4.382812 -2.523438 4.617188 -2.28125 4.921875 -2.03125 C 5.234375 -1.789062 5.671875 -1.570312 6.234375 -1.375 C 6.796875 -1.175781 7.421875 -1.046875 8.109375 -0.984375 Z M 2.09375 -4.3125 C 2.125 -4.738281 2.273438 -5.160156 2.546875 -5.578125 C 2.816406 -6.003906 3.207031 -6.394531 3.71875 -6.75 C 4.226562 -7.113281 4.914062 -7.390625 5.78125 -7.578125 C 6.644531 -7.773438 7.609375 -7.828125 8.671875 -7.734375 L 13.234375 -7.359375 L 13.296875 -8.0625 C 13.453125 -9.90625 12.117188 -10.945312 9.296875 -11.1875 L 8.96875 -11.203125 C 6.90625 -11.378906 5.546875 -11.035156 4.890625 -10.171875 L 3.28125 -11.359375 C 4.382812 -12.816406 6.332031 -13.425781 9.125 -13.1875 L 9.453125 -13.171875 C 10.453125 -13.085938 11.320312 -12.90625 12.0625 -12.625 C 12.8125 -12.34375 13.394531 -12.023438 13.8125 -11.671875 C 14.226562 -11.316406 14.554688 -10.90625 14.796875 -10.4375 C 15.035156 -9.976562 15.1875 -9.539062 15.25 -9.125 C 15.3125 -8.71875 15.328125 -8.304688 15.296875 -7.890625 L 14.53125 1.21875 L 12.53125 1.046875 L 12.625 -0.078125 C 11.207031 0.773438 9.753906 1.140625 8.265625 1.015625 L 7.9375 1 C 6.875 0.90625 5.890625 0.671875 4.984375 0.296875 C 4.078125 -0.078125 3.335938 -0.597656 2.765625 -1.265625 C 2.203125 -1.941406 1.957031 -2.703125 2.03125 -3.546875 Z M 2.09375 -4.3125 "/></g></g></g><g fill="#5ce1e6" fill-opacity="1"><g transform="translate(179.35432, 275.803957)"><g><path d="M 5.25 -15.171875 C 5.25 -15.554688 5.34375 -15.957031 5.53125 -16.375 C 5.71875 -16.800781 5.988281 -17.207031 6.34375 -17.59375 C 6.695312 -17.976562 7.171875 -18.289062 7.765625 -18.53125 C 8.359375 -18.769531 9.019531 -18.890625 9.75 -18.890625 L 10.078125 -18.890625 C 10.867188 -18.890625 11.65625 -18.65625 12.4375 -18.1875 C 13.226562 -17.71875 13.800781 -17.164062 14.15625 -16.53125 L 12.4375 -15.546875 C 12.257812 -15.867188 11.929688 -16.175781 11.453125 -16.46875 C 10.972656 -16.757812 10.515625 -16.90625 10.078125 -16.90625 L 9.75 -16.90625 C 8.945312 -16.90625 8.328125 -16.707031 7.890625 -16.3125 C 7.453125 -15.914062 7.234375 -15.535156 7.234375 -15.171875 L 7.234375 -12.34375 L 12.25 -12.34375 L 12.25 -10.359375 L 7.234375 -10.359375 L 7.234375 0 L 5.25 0 L 5.25 -10.359375 L 2.71875 -10.359375 L 2.71875 -12.34375 L 5.25 -12.34375 Z M 5.25 -15.171875 "/></g></g></g><g fill="#5ce1e6" fill-opacity="1"><g transform="translate(196.387165, 275.776833)"><g><path d="M 3.171875 -6.734375 L 3.296875 -5.15625 C 3.328125 -4.800781 3.441406 -4.445312 3.640625 -4.09375 C 3.847656 -3.75 4.128906 -3.425781 4.484375 -3.125 C 4.835938 -2.832031 5.300781 -2.609375 5.875 -2.453125 C 6.457031 -2.304688 7.109375 -2.265625 7.828125 -2.328125 L 8.15625 -2.34375 C 8.351562 -2.363281 8.550781 -2.382812 8.75 -2.40625 C 8.945312 -2.4375 9.238281 -2.5 9.625 -2.59375 C 10.019531 -2.695312 10.363281 -2.816406 10.65625 -2.953125 C 10.945312 -3.085938 11.234375 -3.285156 11.515625 -3.546875 C 11.796875 -3.804688 11.988281 -4.109375 12.09375 -4.453125 L 14.015625 -3.890625 C 13.710938 -2.910156 13.082031 -2.109375 12.125 -1.484375 C 11.164062 -0.867188 9.898438 -0.492188 8.328125 -0.359375 L 8 -0.34375 C 7.039062 -0.257812 6.144531 -0.332031 5.3125 -0.5625 C 4.476562 -0.789062 3.78125 -1.128906 3.21875 -1.578125 C 2.664062 -2.035156 2.222656 -2.554688 1.890625 -3.140625 C 1.554688 -3.722656 1.363281 -4.335938 1.3125 -4.984375 L 0.984375 -8.84375 C 0.859375 -10.363281 1.304688 -11.648438 2.328125 -12.703125 C 3.347656 -13.753906 4.84375 -14.363281 6.8125 -14.53125 L 7.140625 -14.546875 C 9.097656 -14.710938 10.664062 -14.363281 11.84375 -13.5 C 13.019531 -12.632812 13.671875 -11.441406 13.796875 -9.921875 L 14 -7.640625 Z M 11.828125 -9.453125 L 11.796875 -9.75 C 11.722656 -10.707031 11.304688 -11.445312 10.546875 -11.96875 C 9.796875 -12.488281 8.710938 -12.6875 7.296875 -12.5625 L 6.96875 -12.546875 C 5.5625 -12.421875 4.523438 -12.039062 3.859375 -11.40625 C 3.191406 -10.769531 2.894531 -9.972656 2.96875 -9.015625 L 3 -8.71875 Z M 11.828125 -9.453125 "/></g></g></g><g fill="#5ce1e6" fill-opacity="1"><g transform="translate(213.265047, 274.338106)"><g/></g></g><g fill="#5ce1e6" fill-opacity="1"><g transform="translate(229.964357, 271.497805)"><g><path d="M 1.171875 -2.328125 L 8.203125 -14.0625 L -1.015625 -11.703125 L -1.5 -13.625 L 10.734375 -16.765625 L 11.15625 -15.109375 L 3.9375 -3.046875 L 13.609375 -5.53125 L 14.09375 -3.609375 L 1.65625 -0.421875 Z M 1.171875 -2.328125 "/></g></g></g><g fill="#5ce1e6" fill-opacity="1"><g transform="translate(246.368832, 267.275658)"><g><path d="M 11.34375 -11.828125 L 11.703125 -10.796875 C 12.015625 -9.878906 12.179688 -9 12.203125 -8.15625 C 12.234375 -7.3125 12.117188 -6.519531 11.859375 -5.78125 C 11.597656 -5.050781 11.148438 -4.398438 10.515625 -3.828125 C 9.878906 -3.253906 9.070312 -2.796875 8.09375 -2.453125 L 7.453125 -2.234375 C 6.492188 -1.898438 5.582031 -1.769531 4.71875 -1.84375 C 3.863281 -1.914062 3.109375 -2.160156 2.453125 -2.578125 C 1.804688 -2.992188 1.234375 -3.539062 0.734375 -4.21875 C 0.242188 -4.90625 -0.15625 -5.691406 -0.46875 -6.578125 L -0.8125 -7.59375 C -1.445312 -9.425781 -1.472656 -11.066406 -0.890625 -12.515625 C -0.304688 -13.972656 0.914062 -15.019531 2.78125 -15.65625 L 3.484375 -15.90625 C 5.347656 -16.550781 6.960938 -16.488281 8.328125 -15.71875 C 9.691406 -14.957031 10.695312 -13.660156 11.34375 -11.828125 Z M 4.125 -14.03125 L 3.421875 -13.78125 C 0.878906 -12.90625 0.0976562 -11.0625 1.078125 -8.25 L 1.421875 -7.234375 C 1.585938 -6.773438 1.769531 -6.351562 1.96875 -5.96875 C 2.175781 -5.582031 2.4375 -5.222656 2.75 -4.890625 C 3.070312 -4.554688 3.421875 -4.296875 3.796875 -4.109375 C 4.179688 -3.929688 4.628906 -3.832031 5.140625 -3.8125 C 5.648438 -3.800781 6.203125 -3.898438 6.796875 -4.109375 L 7.4375 -4.328125 C 10.039062 -5.234375 10.832031 -7.171875 9.8125 -10.140625 L 9.453125 -11.171875 C 8.472656 -13.972656 6.695312 -14.925781 4.125 -14.03125 Z M 4.125 -14.03125 "/></g></g></g><g fill="#5ce1e6" fill-opacity="1"><g transform="translate(262.364377, 261.701077)"><g><path d="M 7.859375 -13.328125 C 7.671875 -13.742188 7.429688 -14.078125 7.140625 -14.328125 C 6.859375 -14.585938 6.546875 -14.757812 6.203125 -14.84375 C 5.867188 -14.925781 5.503906 -14.945312 5.109375 -14.90625 C 4.710938 -14.875 4.328125 -14.804688 3.953125 -14.703125 C 3.578125 -14.597656 3.1875 -14.457031 2.78125 -14.28125 L 2.484375 -14.140625 C 2.054688 -13.953125 1.671875 -13.664062 1.328125 -13.28125 C 0.992188 -12.90625 0.738281 -12.492188 0.5625 -12.046875 C 0.394531 -11.609375 0.269531 -11.160156 0.1875 -10.703125 C 0.101562 -10.242188 0.078125 -9.816406 0.109375 -9.421875 C 0.140625 -9.035156 0.203125 -8.726562 0.296875 -8.5 L 3.40625 -1.5 L 1.578125 -0.703125 L -3.921875 -13.109375 L -2.09375 -13.90625 L -1.421875 -12.40625 C -0.835938 -14.125 0.191406 -15.304688 1.671875 -15.953125 L 1.96875 -16.09375 C 3.789062 -16.894531 5.378906 -17.113281 6.734375 -16.75 C 8.085938 -16.382812 9.070312 -15.515625 9.6875 -14.140625 L 13.328125 -5.90625 L 11.5 -5.09375 Z M 7.859375 -13.328125 "/></g></g></g><g fill="#5ce1e6" fill-opacity="1"><g transform="translate(277.839701, 254.812849)"><g><path d="M 0.171875 -7.421875 L 0.9375 -6.046875 C 1.101562 -5.734375 1.347656 -5.457031 1.671875 -5.21875 C 2.003906 -4.988281 2.390625 -4.804688 2.828125 -4.671875 C 3.265625 -4.546875 3.78125 -4.53125 4.375 -4.625 C 4.976562 -4.726562 5.59375 -4.953125 6.21875 -5.296875 L 6.515625 -5.453125 C 6.679688 -5.546875 6.847656 -5.644531 7.015625 -5.75 C 7.191406 -5.851562 7.4375 -6.03125 7.75 -6.28125 C 8.0625 -6.53125 8.328125 -6.773438 8.546875 -7.015625 C 8.765625 -7.265625 8.945312 -7.566406 9.09375 -7.921875 C 9.25 -8.273438 9.296875 -8.628906 9.234375 -8.984375 L 11.21875 -9.25 C 11.351562 -8.21875 11.101562 -7.222656 10.46875 -6.265625 C 9.84375 -5.316406 8.84375 -4.46875 7.46875 -3.71875 L 7.171875 -3.5625 C 6.328125 -3.09375 5.476562 -2.796875 4.625 -2.671875 C 3.78125 -2.546875 3.007812 -2.570312 2.3125 -2.75 C 1.625 -2.9375 1.003906 -3.226562 0.453125 -3.625 C -0.0859375 -4.03125 -0.507812 -4.519531 -0.8125 -5.09375 L -2.671875 -8.484375 C -3.398438 -9.816406 -3.515625 -11.171875 -3.015625 -12.546875 C -2.515625 -13.929688 -1.394531 -15.097656 0.34375 -16.046875 L 0.640625 -16.203125 C 2.359375 -17.148438 3.929688 -17.460938 5.359375 -17.140625 C 6.785156 -16.816406 7.863281 -15.988281 8.59375 -14.65625 L 9.6875 -12.640625 Z M 6.984375 -13.4375 L 6.84375 -13.6875 C 6.382812 -14.53125 5.703125 -15.035156 4.796875 -15.203125 C 3.898438 -15.378906 2.832031 -15.128906 1.59375 -14.453125 L 1.296875 -14.296875 C 0.0546875 -13.609375 -0.734375 -12.835938 -1.078125 -11.984375 C -1.429688 -11.128906 -1.378906 -10.28125 -0.921875 -9.4375 L -0.78125 -9.1875 Z M 6.984375 -13.4375 "/></g></g></g></svg>